Genre:Animation | Horror | Sci-Fi
Language:English
 
http://www.imdb.com/title/tt1267379/

Source:1080p.BluRay
Subtitles:Romana


Format : MPEG-4
Format profile : Base Media
Codec ID : isom
File size : 1.43 GiB
Duration : 1h 14mn
Overall bit rate : 2 760 Kbps


Video
Format settings, CABAC : Yes
Format settings, ReFrames : 3 frames
Format settings, GOP : N=1
Codec ID : avc1
Codec ID/Info : Advanced Video Coding
Duration : 1h 14mn
Bit rate mode : Variable
Bit rate : 2 365 Kbps
Maximum bit rate : 16.2 Mbps
Width : 1 280 pixels
Height : 720 pixels
Display aspect ratio : 16:9
Frame rate mode : Constant
Frame rate : 23.976 fps
Color space : YUV
Chroma subsampling : 4:2:0
Bit depth : 8 bits
Scan type : Progressive
Bits/(Pixel*Frame) : 0.107
Stream size : 1.20 GiB (84%)
Writing library : x264


Audio
ID : 2
Format : AAC
Format/Info : Advanced Audio Codec
Format version : Version 4
Format profile : LC
Format settings, SBR : No
Codec ID : 40
Duration : 1h 14mn
Bit rate mode : Variable
Bit rate : 445 Kbps
Maximum bit rate : 607 Kbps
Channel(s) : 6 channels
Channel positions : Front: L C R, Side: L R, LFE
Sampling rate : 48.0 KHz
Stream size : 237 MiB (16%)
 
http://rapidhdd.com/images/631587vlcsnap-00001.png
 
http://www.rapidhdd.com/images/931758vlcsnap-00002.png
 
http://www.rapidhdd.com/images/889728vlcsnap-00003.png
 
http://www.rapidhdd.com/images/704650vlcsnap-00005.png
 
http://www.rapidhdd.com/images/689481vlcsnap-00004.png